<svg id="Layer_2" data-name="Layer 2" xmlns="http://www.w3.org/2000/svg" viewBox="0 0 463.33 156.24"><defs><style>.cls-1{fill:#231f20;}.cls-2{fill:#fff;}</style></defs><title>sticker</title><rect class="cls-1" width="463.33" height="156.24"/><g id="melody"><path class="cls-2" d="M301.59,64.39a31.67,31.67,0,0,0-7.76-10.73,34.32,34.32,0,0,0-11.38-6.72,42.06,42.06,0,0,0-27.61,0,33.54,33.54,0,0,0-11.38,6.72,32,32,0,0,0-7.69,10.73,34.34,34.34,0,0,0-2.84,14.23,34.68,34.68,0,0,0,2.84,14.28,32.62,32.62,0,0,0,7.69,10.87,34.64,34.64,0,0,0,11.38,6.91,38.62,38.62,0,0,0,12.74,2.42V95.24a14,14,0,0,1-5.43-1.37,14.2,14.2,0,0,1-4.79-3.81,16.65,16.65,0,0,1-2.91-5.37,19.51,19.51,0,0,1,0-12.15,15.92,15.92,0,0,1,2.85-5.24A14.34,14.34,0,0,1,262,63.62a15.92,15.92,0,0,1,13.19,0A15.13,15.13,0,0,1,280,67.3a16.2,16.2,0,0,1,3,5.24,18.36,18.36,0,0,1,1,6.08,19.37,19.37,0,0,1-1,6.07,16.65,16.65,0,0,1-2.91,5.37,13.89,13.89,0,0,1-10.74,5.2v17.85a38.68,38.68,0,0,0,13.07-2.43,35.48,35.48,0,0,0,11.38-6.91,32.23,32.23,0,0,0,7.76-10.87,34.84,34.84,0,0,0,2.84-14.28A34.5,34.5,0,0,0,301.59,64.39Z"/><path class="cls-2" d="M194.62,64.91a32,32,0,0,0-6.66-11A28.45,28.45,0,0,0,177.75,47a34.66,34.66,0,0,0-12.53-2.37V59.24q6,.1,9.1,3.6a12.73,12.73,0,0,1,3.17,8.66H150.21a11.42,11.42,0,0,1,1.29-4.72,13.14,13.14,0,0,1,3.1-3.94,14.73,14.73,0,0,1,4.53-2.65,15.23,15.23,0,0,1,4.29-.91V44.66A37.09,37.09,0,0,0,151,47.07a31.81,31.81,0,0,0-18.36,17.77,36.29,36.29,0,0,0-2.72,14.29,35.59,35.59,0,0,0,2.79,14.48,30.39,30.39,0,0,0,7.62,10.67,33.38,33.38,0,0,0,11.32,6.6,41.4,41.4,0,0,0,13.7,2.26,39.64,39.64,0,0,0,17.27-3.56,29.76,29.76,0,0,0,12-10.15l-14.74-9.31A16.73,16.73,0,0,1,174.12,95a17.81,17.81,0,0,1-8.53,1.88,17.22,17.22,0,0,1-10.28-3.43,14.18,14.18,0,0,1-3.49-3.81,11.32,11.32,0,0,1-1.61-4.92h46.67a21.2,21.2,0,0,0,.13-2.45V79.65A42.39,42.39,0,0,0,194.62,64.91Z"/><rect class="cls-2" x="357.76" y="13.58" width="21.2" height="9.77"/><path class="cls-2" d="M357.76,44.9v8.89h-.26a26.7,26.7,0,0,0-7.63-5.95,24.57,24.57,0,0,0-12-2.71,28.32,28.32,0,0,0-22.17,10.08A33.82,33.82,0,0,0,309.59,66a38.94,38.94,0,0,0-2.13,12.86,40.53,40.53,0,0,0,2.07,12.93,33.17,33.17,0,0,0,6,10.93,29.58,29.58,0,0,0,9.63,7.56,28.52,28.52,0,0,0,12.93,2.85,29,29,0,0,0,12.22-2.65,20.12,20.12,0,0,0,8.86-7.57h.26v8.41H379V44.9Zm-.2,40.18a16.92,16.92,0,0,1-3.1,5.3,15.48,15.48,0,0,1-4.85,3.75,14.21,14.21,0,0,1-6.46,1.42,14.27,14.27,0,0,1-11.38-5.17A15.91,15.91,0,0,1,328.86,85a20.05,20.05,0,0,1-1-6.15,19.37,19.37,0,0,1,1-6.07,15.35,15.35,0,0,1,2.91-5.24,15,15,0,0,1,4.78-3.68,14.57,14.57,0,0,1,6.6-1.43,14.21,14.21,0,0,1,6.46,1.43,15.34,15.34,0,0,1,4.85,3.75,16.92,16.92,0,0,1,3.1,5.3,17.33,17.33,0,0,1,0,12.15Z"/><rect class="cls-2" x="357.76" y="25.14" width="21.2" height="17.96"/><polygon class="cls-2" points="448.47 68.24 455.55 50.04 433.05 50.04 427.42 68.24 448.47 68.24"/><path class="cls-2" d="M426.87,70l-6.62,21.38h-.38L405.51,50H382l26.89,63.36-2.07,5.3a18.33,18.33,0,0,1-3.74,6.4q-2.21,2.27-7.12,2.26a20.83,20.83,0,0,1-3.42-.32,24.61,24.61,0,0,1-3.43-.84L386.76,144a38.39,38.39,0,0,0,5.5,1,50.19,50.19,0,0,0,6.14.38A34.82,34.82,0,0,0,408.94,144a22.62,22.62,0,0,0,7.76-4.2,27,27,0,0,0,5.69-6.72,57.43,57.43,0,0,0,4.33-9l21-54.09Z"/><rect class="cls-2" x="17.26" y="79.02" width="21.33" height="17.96"/><path class="cls-2" d="M119.47,64.07a25.87,25.87,0,0,0-4-8.54,20.64,20.64,0,0,0-7.17-6.2,23.26,23.26,0,0,0-11.06-2.39,23.79,23.79,0,0,0-12.28,3,24.6,24.6,0,0,0-8.28,8,19.5,19.5,0,0,0-7.56-8.15,23.08,23.08,0,0,0-11.83-2.84,23.32,23.32,0,0,0-6.66.9,23.87,23.87,0,0,0-5.5,2.39A18.87,18.87,0,0,0,41,53.66a22.76,22.76,0,0,0-2.91,4h-.26V48.75H17.26V77.22H38.65a16.38,16.38,0,0,1,2.72-8.82,9,9,0,0,1,7.82-4q4.79,0,7,3.23t2.19,8.8v36.72H79.58V78.36a21.07,21.07,0,0,1,.64-5.24,13.65,13.65,0,0,1,2-4.46,10.36,10.36,0,0,1,3.36-3.1,9.21,9.21,0,0,1,4.72-1.17,8.54,8.54,0,0,1,4.59,1.1,8.25,8.25,0,0,1,2.78,2.91,12.54,12.54,0,0,1,1.42,4.33A34.26,34.26,0,0,1,99.49,78v35.17H120.7V73.31A36.6,36.6,0,0,0,119.47,64.07Z"/><rect class="cls-2" x="17.26" y="98.77" width="21.33" height="14.37"/><rect class="cls-2" x="203.27" y="15.39" width="21.59" height="78"/><rect class="cls-2" x="203.27" y="95.18" width="21.59" height="17.96"/></g></svg>