<svg id="Layer_1" data-name="Layer 1" xmlns="http://www.w3.org/2000/svg" viewBox="0 0 576 131.07"><defs><style>.cls-1{fill:#231f20;}.cls-2{fill:#974c2f;}.cls-3{fill:#964b2f;}</style></defs><path class="cls-1" d="M425.73,98,405.57,54.25l-1.82-.45-15.42,44a.11.11,0,0,0,.11.15h4.12a.12.12,0,0,0,.11-.07l8.89-24.78,5.56,13.52-10.52.31-1.36,3.77,13.48-.22,3.31,8h13.38A.36.36,0,0,0,425.73,98Z"/><path class="cls-1" d="M240.07,54.83H217.89A1.85,1.85,0,0,0,216,56.68V96.36a1.85,1.85,0,0,0,1.86,1.85h21.75a.81.81,0,0,0,.81-.81V94.48a.81.81,0,0,0-.81-.81h-8.82V81.76h8.43a.93.93,0,0,0,.92-.93V78.08a.92.92,0,0,0-.92-.93h-8.43V59.29h9.25A1.32,1.32,0,0,0,241.39,58V56.14A1.32,1.32,0,0,0,240.07,54.83Z"/><path class="cls-1" d="M285.52,54.7h-4.89a.32.32,0,0,0-.32.32V70.73l-22.93-18.2h-1.91V97.76a.18.18,0,0,0,.17.17h5.18a.17.17,0,0,0,.17-.17V75.44L280.31,90.7v6.82a.31.31,0,0,0,.32.31h4.89a.31.31,0,0,0,.31-.31V55A.31.31,0,0,0,285.52,54.7Z"/><path class="cls-1" d="M467.62,54.7h-4.89a.31.31,0,0,0-.31.32V70.73l-22.93-18.2h-1.91V97.76a.17.17,0,0,0,.17.17h5.18a.18.18,0,0,0,.17-.17V75.44L462.42,90.7v6.82a.31.31,0,0,0,.31.31h4.89a.31.31,0,0,0,.32-.31V55A.32.32,0,0,0,467.62,54.7Z"/><path class="cls-1" d="M326.45,54.56V66.65a.42.42,0,0,1-.41.43c-2.1,0-11.46.58-11.46,9,0,7.73,8.17,9.13,11.13,9.38a1.15,1.15,0,0,1,1.06,1.15v9.85a2.26,2.26,0,0,1-2.26,2.26c-6.4,0-24.18-1.94-24.18-22.61,0-19.81,20.1-22.24,25-22.54A1,1,0,0,1,326.45,54.56Z"/><path class="cls-1" d="M375,54.44h-9.84a1.39,1.39,0,0,0-1.39,1.39V78.05h-8.43V55.83A1.38,1.38,0,0,0,354,54.44H343.7a1.39,1.39,0,0,0-1.39,1.39V96.2a1.38,1.38,0,0,0,1.39,1.38H354a1.38,1.38,0,0,0,1.38-1.38V82.42h8.43V96.2a1.38,1.38,0,0,0,1.39,1.38H375a1.38,1.38,0,0,0,1.39-1.38V55.83A1.39,1.39,0,0,0,375,54.44Z"/><path class="cls-1" d="M510.35,54.32H480.62a.87.87,0,0,0-.87.87V58a.87.87,0,0,0,.87.87h7.66V97a.78.78,0,0,0,.78.78h12.68a.78.78,0,0,0,.78-.78V58.88h7.83a.87.87,0,0,0,.87-.87V55.19A.87.87,0,0,0,510.35,54.32Z"/><path class="cls-1" d="M547.59,54.86c-6.06,3.27-19.78,6.72-24.2,7.62V96.36a1.85,1.85,0,0,0,1.86,1.85H547a.81.81,0,0,0,.81-.81V94.48a.81.81,0,0,0-.81-.81h-8.82V81.76h8.43a.93.93,0,0,0,.92-.93V78.08a.92.92,0,0,0-.92-.93h-8.43V59.29h9.25A1.32,1.32,0,0,0,548.75,58V56.14A1.3,1.3,0,0,0,547.59,54.86Z"/><path class="cls-2" d="M526.62,49.93a2.82,2.82,0,1,1,4.59-2.29v.07c-1,.42-2,.88-3,1.4Z"/><path class="cls-2" d="M547,53.63c.81-.46,1.1-3.25.77-3.64-1.13-1.37-8.78-4.41-17.29-1a23,23,0,0,0-2.3,1.11c-8.59,4.92-9.79,9.79-9.08,10.33,0,0,.82,1.31,1.93,1.32a10.76,10.76,0,0,0,1.35-.23c4.42-.9,18.14-4.35,24.2-7.62Z"/><rect class="cls-3" x="54.57" y="63.73" width="4.49" height="20.78" rx="2.07" transform="translate(-27.14 33.21) rotate(-26.55)"/><path class="cls-3" d="M84.92,53.8l-15.41,44a.11.11,0,0,0,.11.15h4.12a.12.12,0,0,0,.11-.07l8.89-24.78L93.21,98.53h13.37a.36.36,0,0,0,.33-.51L86.75,54.25Z"/><polygon class="cls-3" points="76.42 90.71 89.89 90.49 88.3 86.63 77.78 86.94 76.42 90.71"/><path class="cls-3" d="M143,54.76H118.32a.1.1,0,0,0-.09.1V97.38a.26.26,0,0,0,.26.26h14.26a.26.26,0,0,0,.26-.26V82.08h8.49a.69.69,0,0,0,.69-.68V78.16a.69.69,0,0,0-.69-.69H133V58.77h10a.83.83,0,0,0,.83-.83V55.59A.83.83,0,0,0,143,54.76Z"/><path class="cls-3" d="M182,54.83H159.78a1.85,1.85,0,0,0-1.86,1.85V96.36a1.85,1.85,0,0,0,1.86,1.85h21.75a.81.81,0,0,0,.81-.81V94.48a.81.81,0,0,0-.81-.81h-8.82V81.76h8.43a.93.93,0,0,0,.93-.93V78.08a.93.93,0,0,0-.93-.93h-8.43V59.29H182A1.32,1.32,0,0,0,183.28,58V56.14A1.32,1.32,0,0,0,182,54.83Z"/><path class="cls-3" d="M57.64,83.2,50.09,68.09c-1.6,1.25-6.6,6.54-7.25,9-.11.41-2.41,6.26-2.75,8.73-.22,1.65-3.45,1.23-2.91-.61,3.55-12,15.62-46.57,15.62-46.57a6.34,6.34,0,0,0-4.39-7.61c-4.75-1.22-7.7,1.83-8.52,5.3h0c-1.88-.68-2.33-.71-3-.93-1-.32-1.16.79-.5,1,1.88.5,4.81,1.32,6.26,2.33.26.18.39,1,1.09.63.44-.25.19-.85-.19-1.21L44.4,36c.89-1.93,4.56-1.12,3.64,1.3C43.68,48.71,27.42,84,27.92,84.49c0,0-3.44,9,5.28,14.31,5.75,3.53,14.4.48,16.51-6.61,0,0,1-5.29,3.49-7.1a12.83,12.83,0,0,1,4.47-1.84ZM40.12,62.85a1,1,0,0,1,1.39.47,1,1,0,1,1-1.39-.47Zm-1.41,3.71a1,1,0,1,1-.46,1.38A1,1,0,0,1,38.71,66.56Zm-1.43,3.66a1,1,0,1,1-.46,1.38A1,1,0,0,1,37.28,70.22Zm-.55,5.63a1,1,0,0,1-1.39-.46,1,1,0,1,1,1.39.46Z"/></svg>